<svg width="745" height="880" viewBox="0 0 745 880" fill="none" xmlns="http://www.w3.org/2000/svg">
<g filter="url(#filter0_d_2_8)">
<path d="M337 116H95C83.9543 116 75 124.954 75 136V332C75 343.046 83.9543 352 95 352H337C348.046 352 357 343.046 357 332V136C357 124.954 348.046 116 337 116Z" fill="white"/>
</g>
<g filter="url(#filter1_d_2_8)">
<path d="M337 553H95C83.9543 553 75 561.954 75 573V775C75 786.046 83.9543 795 95 795H337C348.046 795 357 786.046 357 775V573C357 561.954 348.046 553 337 553Z" fill="white"/>
</g>
<g filter="url(#filter2_d_2_8)">
<path d="M650 317H408C396.954 317 388 325.954 388 337V539C388 550.046 396.954 559 408 559H650C661.046 559 670 550.046 670 539V337C670 325.954 661.046 317 650 317Z" fill="white"/>
</g>
<path d="M109.088 292.008C109.712 292.008 110.272 291.872 110.768 291.6C111.264 291.328 111.688 290.936 112.04 290.424C112.392 289.912 112.664 289.288 112.856 288.552C113.048 287.816 113.144 286.992 113.144 286.08C113.144 284.32 112.776 282.944 112.04 281.952C111.32 280.944 110.336 280.44 109.088 280.44C107.84 280.44 106.848 280.944 106.112 281.952C105.392 282.944 105.032 284.32 105.032 286.08C105.032 286.992 105.128 287.816 105.32 288.552C105.512 289.288 105.784 289.912 106.136 290.424C106.488 290.936 106.912 291.328 107.408 291.6C107.904 291.872 108.464 292.008 109.088 292.008ZM114.08 298.176C112.512 298.176 111.2 297.8 110.144 297.048C109.088 296.296 108.304 295.336 107.792 294.168C106.944 294.024 106.176 293.736 105.488 293.304C104.8 292.856 104.208 292.288 103.712 291.6C103.216 290.912 102.832 290.104 102.56 289.176C102.304 288.248 102.176 287.216 102.176 286.08C102.176 284.816 102.344 283.688 102.68 282.696C103.016 281.688 103.488 280.84 104.096 280.152C104.704 279.464 105.432 278.936 106.28 278.568C107.128 278.2 108.064 278.016 109.088 278.016C110.112 278.016 111.048 278.2 111.896 278.568C112.744 278.936 113.472 279.464 114.08 280.152C114.704 280.84 115.184 281.688 115.52 282.696C115.856 283.688 116.024 284.816 116.024 286.08C116.024 287.168 115.896 288.168 115.64 289.08C115.4 289.976 115.048 290.768 114.584 291.456C114.12 292.144 113.56 292.712 112.904 293.16C112.264 293.608 111.544 293.92 110.744 294.096C111.112 294.72 111.616 295.176 112.256 295.464C112.912 295.752 113.624 295.896 114.392 295.896C114.744 295.896 115.056 295.872 115.328 295.824C115.616 295.792 115.872 295.736 116.096 295.656L116.6 297.72C116.328 297.848 115.976 297.952 115.544 298.032C115.112 298.128 114.624 298.176 114.08 298.176ZM122.428 294.288C121.164 294.288 120.244 293.888 119.668 293.088C119.092 292.272 118.804 291.112 118.804 289.608V282.216H121.564V289.248C121.564 290.224 121.708 290.912 121.996 291.312C122.284 291.712 122.748 291.912 123.388 291.912C123.9 291.912 124.348 291.784 124.732 291.528C125.132 291.272 125.556 290.856 126.004 290.28V282.216H128.764V294H126.508L126.292 292.272H126.22C125.708 292.88 125.148 293.368 124.54 293.736C123.948 294.104 123.244 294.288 122.428 294.288ZM135.116 294.288C134.076 294.288 133.236 293.976 132.596 293.352C131.956 292.712 131.636 291.872 131.636 290.832C131.636 290.208 131.764 289.656 132.02 289.176C132.292 288.68 132.708 288.256 133.268 287.904C133.844 287.552 134.564 287.256 135.428 287.016C136.308 286.776 137.356 286.592 138.572 286.464C138.556 286.16 138.508 285.872 138.428 285.6C138.364 285.312 138.244 285.064 138.068 284.856C137.908 284.632 137.692 284.464 137.42 284.352C137.148 284.224 136.812 284.16 136.412 284.16C135.836 284.16 135.268 284.272 134.708 284.496C134.164 284.72 133.628 284.992 133.1 285.312L132.092 283.464C132.748 283.048 133.484 282.688 134.3 282.384C135.116 282.08 135.996 281.928 136.94 281.928C138.412 281.928 139.508 282.368 140.228 283.248C140.964 284.112 141.332 285.368 141.332 287.016V294H139.052L138.86 292.704H138.764C138.236 293.152 137.668 293.528 137.06 293.832C136.468 294.136 135.82 294.288 135.116 294.288ZM136.004 292.128C136.484 292.128 136.916 292.016 137.3 291.792C137.7 291.568 138.124 291.248 138.572 290.832V288.192C137.772 288.288 137.1 288.416 136.556 288.576C136.012 288.736 135.572 288.92 135.236 289.128C134.9 289.32 134.66 289.544 134.516 289.8C134.372 290.056 134.3 290.328 134.3 290.616C134.3 291.144 134.46 291.528 134.78 291.768C135.1 292.008 135.508 292.128 136.004 292.128ZM147.323 294.288C146.331 294.288 145.635 293.992 145.235 293.4C144.835 292.808 144.635 292 144.635 290.976V277.056H147.395V291.12C147.395 291.456 147.459 291.696 147.587 291.84C147.715 291.968 147.851 292.032 147.995 292.032C148.059 292.032 148.115 292.032 148.163 292.032C148.227 292.032 148.315 292.016 148.427 291.984L148.787 294.048C148.419 294.208 147.931 294.288 147.323 294.288ZM151.15 294V282.216H153.91V294H151.15ZM152.542 280.152C152.046 280.152 151.638 280.008 151.318 279.72C150.998 279.432 150.838 279.056 150.838 278.592C150.838 278.128 150.998 277.752 151.318 277.464C151.638 277.16 152.046 277.008 152.542 277.008C153.038 277.008 153.446 277.16 153.766 277.464C154.086 277.752 154.246 278.128 154.246 278.592C154.246 279.056 154.086 279.432 153.766 279.72C153.446 280.008 153.038 280.152 152.542 280.152ZM157.912 294V284.4H156.328V282.336L157.912 282.216V280.992C157.912 280.384 157.984 279.824 158.128 279.312C158.272 278.784 158.504 278.336 158.824 277.968C159.144 277.584 159.544 277.288 160.024 277.08C160.52 276.872 161.12 276.768 161.824 276.768C162.24 276.768 162.632 276.808 163 276.888C163.384 276.968 163.712 277.064 163.984 277.176L163.456 279.24C163.024 279.048 162.592 278.952 162.16 278.952C161.168 278.952 160.672 279.616 160.672 280.944V282.216H162.976V284.4H160.672V294H157.912ZM165.049 294V282.216H167.809V294H165.049ZM166.441 280.152C165.945 280.152 165.537 280.008 165.217 279.72C164.897 279.432 164.737 279.056 164.737 278.592C164.737 278.128 164.897 277.752 165.217 277.464C165.537 277.16 165.945 277.008 166.441 277.008C166.937 277.008 167.345 277.16 167.665 277.464C167.985 277.752 168.145 278.128 168.145 278.592C168.145 279.056 167.985 279.432 167.665 279.72C167.345 280.008 166.937 280.152 166.441 280.152ZM176.37 294.288C175.554 294.288 174.794 294.152 174.09 293.88C173.386 293.592 172.77 293.184 172.242 292.656C171.714 292.128 171.298 291.488 170.994 290.736C170.706 289.968 170.562 289.096 170.562 288.12C170.562 287.16 170.714 286.296 171.018 285.528C171.322 284.76 171.722 284.112 172.218 283.584C172.73 283.056 173.314 282.648 173.97 282.36C174.626 282.072 175.298 281.928 175.986 281.928C176.786 281.928 177.49 282.064 178.098 282.336C178.706 282.608 179.21 282.992 179.61 283.488C180.026 283.984 180.338 284.576 180.546 285.264C180.754 285.952 180.858 286.704 180.858 287.52C180.858 287.792 180.842 288.048 180.81 288.288C180.794 288.528 180.77 288.72 180.738 288.864H173.25C173.378 289.92 173.746 290.736 174.354 291.312C174.978 291.872 175.77 292.152 176.73 292.152C177.242 292.152 177.714 292.08 178.146 291.936C178.594 291.776 179.034 291.56 179.466 291.288L180.402 293.016C179.842 293.384 179.218 293.688 178.53 293.928C177.842 294.168 177.122 294.288 176.37 294.288ZM173.226 286.992H178.458C178.458 286.08 178.258 285.368 177.858 284.856C177.474 284.328 176.874 284.064 176.058 284.064C175.354 284.064 174.738 284.312 174.21 284.808C173.682 285.304 173.354 286.032 173.226 286.992ZM187.622 294.288C186.134 294.288 184.95 293.752 184.07 292.68C183.206 291.592 182.774 290.072 182.774 288.12C182.774 287.16 182.91 286.296 183.182 285.528C183.47 284.76 183.846 284.112 184.31 283.584C184.774 283.056 185.302 282.648 185.894 282.36C186.502 282.072 187.126 281.928 187.766 281.928C188.438 281.928 189.006 282.048 189.47 282.288C189.934 282.512 190.398 282.824 190.862 283.224L190.766 281.328V277.056H193.526V294H191.246L191.054 292.728H190.958C190.526 293.16 190.022 293.528 189.446 293.832C188.87 294.136 188.262 294.288 187.622 294.288ZM188.294 292.008C189.174 292.008 189.998 291.568 190.766 290.688V285.192C190.35 284.824 189.942 284.568 189.542 284.424C189.158 284.28 188.766 284.208 188.366 284.208C187.598 284.208 186.95 284.544 186.422 285.216C185.894 285.888 185.63 286.848 185.63 288.096C185.63 289.376 185.854 290.352 186.302 291.024C186.766 291.68 187.43 292.008 188.294 292.008ZM202.086 294V278.304H206.286C208.686 278.304 210.558 278.952 211.902 280.248C213.246 281.544 213.918 283.488 213.918 286.08C213.918 287.376 213.742 288.52 213.39 289.512C213.054 290.504 212.558 291.336 211.902 292.008C211.262 292.664 210.478 293.16 209.55 293.496C208.638 293.832 207.598 294 206.43 294H202.086ZM204.87 291.744H206.094C207.694 291.744 208.918 291.288 209.766 290.376C210.63 289.448 211.062 288.016 211.062 286.08C211.062 284.16 210.63 282.76 209.766 281.88C208.902 281 207.678 280.56 206.094 280.56H204.87V291.744ZM221.67 294.288C220.934 294.288 220.23 294.152 219.558 293.88C218.886 293.608 218.286 293.208 217.758 292.68C217.246 292.152 216.838 291.504 216.534 290.736C216.23 289.968 216.078 289.096 216.078 288.12C216.078 287.144 216.23 286.272 216.534 285.504C216.838 284.736 217.246 284.088 217.758 283.56C218.286 283.032 218.886 282.632 219.558 282.36C220.23 282.072 220.934 281.928 221.67 281.928C222.406 281.928 223.11 282.072 223.782 282.36C224.47 282.632 225.07 283.032 225.582 283.56C226.094 284.088 226.502 284.736 226.806 285.504C227.126 286.272 227.286 287.144 227.286 288.12C227.286 289.096 227.126 289.968 226.806 290.736C226.502 291.504 226.094 292.152 225.582 292.68C225.07 293.208 224.47 293.608 223.782 293.88C223.11 294.152 222.406 294.288 221.67 294.288ZM221.67 292.032C222.534 292.032 223.214 291.68 223.71 290.976C224.206 290.256 224.454 289.304 224.454 288.12C224.454 286.92 224.206 285.968 223.71 285.264C223.214 284.544 222.534 284.184 221.67 284.184C220.806 284.184 220.126 284.544 219.63 285.264C219.15 285.968 218.91 286.92 218.91 288.12C218.91 289.304 219.15 290.256 219.63 290.976C220.126 291.68 220.806 292.032 221.67 292.032ZM234.938 294.288C234.138 294.288 233.386 294.152 232.682 293.88C231.994 293.608 231.394 293.208 230.882 292.68C230.37 292.152 229.97 291.504 229.682 290.736C229.394 289.968 229.25 289.096 229.25 288.12C229.25 287.144 229.41 286.272 229.73 285.504C230.05 284.736 230.482 284.088 231.026 283.56C231.57 283.032 232.194 282.632 232.898 282.36C233.618 282.072 234.37 281.928 235.154 281.928C235.922 281.928 236.578 282.056 237.122 282.312C237.682 282.568 238.178 282.88 238.61 283.248L237.266 285.048C236.946 284.776 236.626 284.568 236.306 284.424C236.002 284.264 235.666 284.184 235.298 284.184C234.338 284.184 233.562 284.544 232.97 285.264C232.378 285.968 232.082 286.92 232.082 288.12C232.082 289.304 232.37 290.256 232.946 290.976C233.538 291.68 234.298 292.032 235.226 292.032C235.69 292.032 236.122 291.936 236.522 291.744C236.938 291.536 237.314 291.296 237.65 291.024L238.778 292.848C238.218 293.328 237.602 293.688 236.93 293.928C236.274 294.168 235.61 294.288 234.938 294.288ZM245.021 294.288C244.333 294.288 243.749 294.184 243.269 293.976C242.805 293.768 242.421 293.48 242.117 293.112C241.829 292.728 241.613 292.28 241.469 291.768C241.341 291.24 241.277 290.656 241.277 290.016V284.4H239.597V282.336L241.421 282.216L241.757 279H244.061V282.216H247.061V284.4H244.061V290.016C244.061 291.392 244.613 292.08 245.717 292.08C245.925 292.08 246.133 292.056 246.341 292.008C246.565 291.96 246.765 291.896 246.941 291.816L247.421 293.856C247.101 293.968 246.733 294.064 246.317 294.144C245.917 294.24 245.485 294.288 245.021 294.288ZM253.99 294.288C253.254 294.288 252.55 294.152 251.878 293.88C251.206 293.608 250.606 293.208 250.078 292.68C249.566 292.152 249.158 291.504 248.854 290.736C248.55 289.968 248.398 289.096 248.398 288.12C248.398 287.144 248.55 286.272 248.854 285.504C249.158 284.736 249.566 284.088 250.078 283.56C250.606 283.032 251.206 282.632 251.878 282.36C252.55 282.072 253.254 281.928 253.99 281.928C254.726 281.928 255.43 282.072 256.102 282.36C256.79 282.632 257.39 283.032 257.902 283.56C258.414 284.088 258.822 284.736 259.126 285.504C259.446 286.272 259.606 287.144 259.606 288.12C259.606 289.096 259.446 289.968 259.126 290.736C258.822 291.504 258.414 292.152 257.902 292.68C257.39 293.208 256.79 293.608 256.102 293.88C255.43 294.152 254.726 294.288 253.99 294.288ZM253.99 292.032C254.854 292.032 255.534 291.68 256.03 290.976C256.526 290.256 256.774 289.304 256.774 288.12C256.774 286.92 256.526 285.968 256.03 285.264C255.534 284.544 254.854 284.184 253.99 284.184C253.126 284.184 252.446 284.544 251.95 285.264C251.47 285.968 251.23 286.92 251.23 288.12C251.23 289.304 251.47 290.256 251.95 290.976C252.446 291.68 253.126 292.032 253.99 292.032ZM262.338 294V282.216H264.618L264.81 284.304H264.906C265.322 283.536 265.826 282.952 266.418 282.552C267.01 282.136 267.618 281.928 268.242 281.928C268.802 281.928 269.25 282.008 269.586 282.168L269.106 284.568C268.898 284.504 268.706 284.456 268.53 284.424C268.354 284.392 268.138 284.376 267.882 284.376C267.418 284.376 266.93 284.56 266.418 284.928C265.906 285.28 265.466 285.904 265.098 286.8V294H262.338ZM274.438 294.288C273.622 294.288 272.814 294.136 272.014 293.832C271.23 293.512 270.55 293.12 269.974 292.656L271.27 290.88C271.798 291.296 272.318 291.624 272.83 291.864C273.358 292.088 273.926 292.2 274.534 292.2C275.174 292.2 275.646 292.072 275.95 291.816C276.254 291.544 276.406 291.2 276.406 290.784C276.406 290.544 276.334 290.336 276.19 290.16C276.046 289.968 275.854 289.8 275.614 289.656C275.374 289.512 275.102 289.384 274.798 289.272C274.494 289.144 274.19 289.016 273.886 288.888C273.502 288.744 273.11 288.576 272.71 288.384C272.31 288.192 271.95 287.96 271.63 287.688C271.326 287.416 271.07 287.104 270.862 286.752C270.67 286.384 270.574 285.952 270.574 285.456C270.574 284.416 270.958 283.568 271.726 282.912C272.494 282.256 273.542 281.928 274.87 281.928C275.686 281.928 276.422 282.072 277.078 282.36C277.734 282.648 278.302 282.976 278.782 283.344L277.51 285.024C277.094 284.72 276.67 284.48 276.238 284.304C275.822 284.112 275.382 284.016 274.918 284.016C274.326 284.016 273.886 284.144 273.598 284.4C273.326 284.64 273.19 284.944 273.19 285.312C273.19 285.552 273.254 285.76 273.382 285.936C273.526 286.096 273.71 286.24 273.934 286.368C274.158 286.496 274.414 286.616 274.702 286.728C275.006 286.84 275.318 286.952 275.638 287.064C276.038 287.208 276.438 287.376 276.838 287.568C277.238 287.744 277.598 287.968 277.918 288.24C278.254 288.512 278.518 288.848 278.71 289.248C278.918 289.632 279.022 290.096 279.022 290.64C279.022 291.152 278.918 291.632 278.71 292.08C278.518 292.512 278.23 292.896 277.846 293.232C277.462 293.552 276.982 293.808 276.406 294C275.83 294.192 275.174 294.288 274.438 294.288Z" fill="#002348"/>
<path d="M101.912 737V735.392C102.968 734.368 103.92 733.424 104.768 732.56C105.632 731.696 106.36 730.896 106.952 730.16C107.56 729.424 108.024 728.736 108.344 728.096C108.664 727.456 108.824 726.848 108.824 726.272C108.824 725.456 108.608 724.816 108.176 724.352C107.744 723.872 107.12 723.632 106.304 723.632C105.712 723.632 105.168 723.8 104.672 724.136C104.192 724.472 103.744 724.872 103.328 725.336L101.792 723.8C102.496 723.048 103.216 722.472 103.952 722.072C104.704 721.656 105.608 721.448 106.664 721.448C107.4 721.448 108.064 721.56 108.656 721.784C109.248 722.008 109.752 722.328 110.168 722.744C110.584 723.144 110.904 723.632 111.128 724.208C111.368 724.784 111.488 725.424 111.488 726.128C111.488 726.8 111.336 727.488 111.032 728.192C110.744 728.88 110.344 729.584 109.832 730.304C109.336 731.008 108.752 731.736 108.08 732.488C107.408 733.24 106.696 734.016 105.944 734.816C106.344 734.784 106.776 734.752 107.24 734.72C107.704 734.672 108.12 734.648 108.488 734.648H112.232V737H101.912ZM120.481 737V733.064H113.737V731.192L119.785 721.736H123.073V730.928H124.993V733.064H123.073V737H120.481ZM116.473 730.928H120.481V727.472C120.481 727.024 120.489 726.496 120.505 725.888C120.537 725.28 120.569 724.752 120.601 724.304H120.505C120.313 724.704 120.113 725.096 119.905 725.48C119.697 725.864 119.481 726.264 119.257 726.68L116.473 730.928ZM132.406 737V721.304H135.19V727.616H141.55V721.304H144.334V737H141.55V730.04H135.19V737H132.406ZM152.904 737.288C152.168 737.288 151.464 737.152 150.792 736.88C150.12 736.608 149.52 736.208 148.992 735.68C148.48 735.152 148.072 734.504 147.768 733.736C147.464 732.968 147.312 732.096 147.312 731.12C147.312 730.144 147.464 729.272 147.768 728.504C148.072 727.736 148.48 727.088 148.992 726.56C149.52 726.032 150.12 725.632 150.792 725.36C151.464 725.072 152.168 724.928 152.904 724.928C153.64 724.928 154.344 725.072 155.016 725.36C155.704 725.632 156.304 726.032 156.816 726.56C157.328 727.088 157.736 727.736 158.04 728.504C158.36 729.272 158.52 730.144 158.52 731.12C158.52 732.096 158.36 732.968 158.04 733.736C157.736 734.504 157.328 735.152 156.816 735.68C156.304 736.208 155.704 736.608 155.016 736.88C154.344 737.152 153.64 737.288 152.904 737.288ZM152.904 735.032C153.768 735.032 154.448 734.68 154.944 733.976C155.44 733.256 155.688 732.304 155.688 731.12C155.688 729.92 155.44 728.968 154.944 728.264C154.448 727.544 153.768 727.184 152.904 727.184C152.04 727.184 151.36 727.544 150.864 728.264C150.384 728.968 150.144 729.92 150.144 731.12C150.144 732.304 150.384 733.256 150.864 733.976C151.36 734.68 152.04 735.032 152.904 735.032ZM164.756 737.288C163.492 737.288 162.572 736.888 161.996 736.088C161.42 735.272 161.132 734.112 161.132 732.608V725.216H163.892V732.248C163.892 733.224 164.036 733.912 164.324 734.312C164.612 734.712 165.076 734.912 165.716 734.912C166.228 734.912 166.676 734.784 167.06 734.528C167.46 734.272 167.884 733.856 168.332 733.28V725.216H171.092V737H168.836L168.62 735.272H168.548C168.036 735.88 167.476 736.368 166.868 736.736C166.276 737.104 165.572 737.288 164.756 737.288ZM174.588 737V725.216H176.868L177.06 727.304H177.156C177.572 726.536 178.076 725.952 178.668 725.552C179.26 725.136 179.868 724.928 180.492 724.928C181.052 724.928 181.5 725.008 181.836 725.168L181.356 727.568C181.148 727.504 180.956 727.456 180.78 727.424C180.604 727.392 180.388 727.376 180.132 727.376C179.668 727.376 179.18 727.56 178.668 727.928C178.156 728.28 177.716 728.904 177.348 729.8V737H174.588ZM186.688 737.288C185.872 737.288 185.064 737.136 184.264 736.832C183.48 736.512 182.8 736.12 182.224 735.656L183.52 733.88C184.048 734.296 184.568 734.624 185.08 734.864C185.608 735.088 186.176 735.2 186.784 735.2C187.424 735.2 187.896 735.072 188.2 734.816C188.504 734.544 188.656 734.2 188.656 733.784C188.656 733.544 188.584 733.336 188.44 733.16C188.296 732.968 188.104 732.8 187.864 732.656C187.624 732.512 187.352 732.384 187.048 732.272C186.744 732.144 186.44 732.016 186.136 731.888C185.752 731.744 185.36 731.576 184.96 731.384C184.56 731.192 184.2 730.96 183.88 730.688C183.576 730.416 183.32 730.104 183.112 729.752C182.92 729.384 182.824 728.952 182.824 728.456C182.824 727.416 183.208 726.568 183.976 725.912C184.744 725.256 185.792 724.928 187.12 724.928C187.936 724.928 188.672 725.072 189.328 725.36C189.984 725.648 190.552 725.976 191.032 726.344L189.76 728.024C189.344 727.72 188.92 727.48 188.488 727.304C188.072 727.112 187.632 727.016 187.168 727.016C186.576 727.016 186.136 727.144 185.848 727.4C185.576 727.64 185.44 727.944 185.44 728.312C185.44 728.552 185.504 728.76 185.632 728.936C185.776 729.096 185.96 729.24 186.184 729.368C186.408 729.496 186.664 729.616 186.952 729.728C187.256 729.84 187.568 729.952 187.888 730.064C188.288 730.208 188.688 730.376 189.088 730.568C189.488 730.744 189.848 730.968 190.168 731.24C190.504 731.512 190.768 731.848 190.96 732.248C191.168 732.632 191.272 733.096 191.272 733.64C191.272 734.152 191.168 734.632 190.96 735.08C190.768 735.512 190.48 735.896 190.096 736.232C189.712 736.552 189.232 736.808 188.656 737C188.08 737.192 187.424 737.288 186.688 737.288ZM203.365 737.288C202.309 737.288 201.285 737.088 200.293 736.688C199.317 736.288 198.453 735.72 197.701 734.984L199.333 733.088C199.893 733.616 200.533 734.048 201.253 734.384C201.973 734.704 202.693 734.864 203.413 734.864C204.309 734.864 204.989 734.68 205.453 734.312C205.917 733.944 206.149 733.456 206.149 732.848C206.149 732.528 206.085 732.256 205.957 732.032C205.845 731.808 205.677 731.616 205.453 731.456C205.245 731.28 204.989 731.12 204.685 730.976C204.397 730.832 204.077 730.688 203.725 730.544L201.565 729.608C201.181 729.448 200.797 729.248 200.413 729.008C200.045 728.768 199.709 728.48 199.405 728.144C199.101 727.808 198.853 727.416 198.661 726.968C198.485 726.52 198.397 726.008 198.397 725.432C198.397 724.808 198.525 724.232 198.781 723.704C199.053 723.16 199.421 722.688 199.885 722.288C200.349 721.888 200.901 721.576 201.541 721.352C202.197 721.128 202.909 721.016 203.677 721.016C204.589 721.016 205.469 721.2 206.317 721.568C207.165 721.92 207.893 722.4 208.501 723.008L207.085 724.784C206.573 724.368 206.045 724.04 205.501 723.8C204.957 723.56 204.349 723.44 203.677 723.44C202.925 723.44 202.325 723.608 201.877 723.944C201.429 724.264 201.205 724.712 201.205 725.288C201.205 725.592 201.269 725.856 201.397 726.08C201.541 726.288 201.725 726.48 201.949 726.656C202.189 726.816 202.461 726.968 202.765 727.112C203.069 727.24 203.381 727.368 203.701 727.496L205.837 728.384C206.301 728.576 206.725 728.8 207.109 729.056C207.493 729.312 207.821 729.608 208.093 729.944C208.381 730.28 208.605 730.672 208.765 731.12C208.925 731.552 209.005 732.056 209.005 732.632C209.005 733.272 208.877 733.872 208.621 734.432C208.365 734.992 207.989 735.488 207.493 735.92C207.013 736.336 206.421 736.672 205.717 736.928C205.029 737.168 204.245 737.288 203.365 737.288ZM216.659 737.288C215.843 737.288 215.083 737.152 214.379 736.88C213.675 736.592 213.059 736.184 212.531 735.656C212.003 735.128 211.587 734.488 211.283 733.736C210.995 732.968 210.851 732.096 210.851 731.12C210.851 730.16 211.003 729.296 211.307 728.528C211.611 727.76 212.011 727.112 212.507 726.584C213.019 726.056 213.603 725.648 214.259 725.36C214.915 725.072 215.587 724.928 216.275 724.928C217.075 724.928 217.779 725.064 218.387 725.336C218.995 725.608 219.499 725.992 219.899 726.488C220.315 726.984 220.627 727.576 220.835 728.264C221.043 728.952 221.147 729.704 221.147 730.52C221.147 730.792 221.131 731.048 221.099 731.288C221.083 731.528 221.059 731.72 221.027 731.864H213.539C213.667 732.92 214.035 733.736 214.643 734.312C215.267 734.872 216.059 735.152 217.019 735.152C217.531 735.152 218.003 735.08 218.435 734.936C218.883 734.776 219.323 734.56 219.755 734.288L220.691 736.016C220.131 736.384 219.507 736.688 218.819 736.928C218.131 737.168 217.411 737.288 216.659 737.288ZM213.515 729.992H218.747C218.747 729.08 218.547 728.368 218.147 727.856C217.763 727.328 217.163 727.064 216.347 727.064C215.643 727.064 215.027 727.312 214.499 727.808C213.971 728.304 213.643 729.032 213.515 729.992ZM223.783 737V725.216H226.063L226.255 727.304H226.351C226.767 726.536 227.271 725.952 227.863 725.552C228.455 725.136 229.063 724.928 229.687 724.928C230.247 724.928 230.695 725.008 231.031 725.168L230.551 727.568C230.343 727.504 230.151 727.456 229.975 727.424C229.799 727.392 229.583 727.376 229.327 727.376C228.863 727.376 228.375 727.56 227.863 727.928C227.351 728.28 226.911 728.904 226.543 729.8V737H223.783ZM235.751 737L231.647 725.216H234.455L236.327 731.336C236.487 731.912 236.647 732.496 236.807 733.088C236.983 733.68 237.151 734.28 237.311 734.888H237.407C237.583 734.28 237.751 733.68 237.911 733.088C238.071 732.496 238.239 731.912 238.415 731.336L240.287 725.216H242.951L238.943 737H235.751ZM244.994 737V725.216H247.754V737H244.994ZM246.386 723.152C245.89 723.152 245.482 723.008 245.162 722.72C244.842 722.432 244.682 722.056 244.682 721.592C244.682 721.128 244.842 720.752 245.162 720.464C245.482 720.16 245.89 720.008 246.386 720.008C246.882 720.008 247.29 720.16 247.61 720.464C247.93 720.752 248.09 721.128 248.09 721.592C248.09 722.056 247.93 722.432 247.61 722.72C247.29 723.008 246.882 723.152 246.386 723.152ZM256.195 737.288C255.395 737.288 254.643 737.152 253.939 736.88C253.251 736.608 252.651 736.208 252.139 735.68C251.627 735.152 251.227 734.504 250.939 733.736C250.651 732.968 250.507 732.096 250.507 731.12C250.507 730.144 250.667 729.272 250.987 728.504C251.307 727.736 251.739 727.088 252.283 726.56C252.827 726.032 253.451 725.632 254.155 725.36C254.875 725.072 255.627 724.928 256.411 724.928C257.179 724.928 257.835 725.056 258.379 725.312C258.939 725.568 259.435 725.88 259.867 726.248L258.523 728.048C258.203 727.776 257.883 727.568 257.563 727.424C257.259 727.264 256.923 727.184 256.555 727.184C255.595 727.184 254.819 727.544 254.227 728.264C253.635 728.968 253.339 729.92 253.339 731.12C253.339 732.304 253.627 733.256 254.203 733.976C254.795 734.68 255.555 735.032 256.483 735.032C256.947 735.032 257.379 734.936 257.779 734.744C258.195 734.536 258.571 734.296 258.907 734.024L260.035 735.848C259.475 736.328 258.859 736.688 258.187 736.928C257.531 737.168 256.867 737.288 256.195 737.288ZM266.815 737.288C265.999 737.288 265.239 737.152 264.535 736.88C263.831 736.592 263.215 736.184 262.687 735.656C262.159 735.128 261.743 734.488 261.439 733.736C261.151 732.968 261.007 732.096 261.007 731.12C261.007 730.16 261.159 729.296 261.463 728.528C261.767 727.76 262.167 727.112 262.663 726.584C263.175 726.056 263.759 725.648 264.415 725.36C265.071 725.072 265.743 724.928 266.431 724.928C267.231 724.928 267.935 725.064 268.543 725.336C269.151 725.608 269.655 725.992 270.055 726.488C270.471 726.984 270.783 727.576 270.991 728.264C271.199 728.952 271.303 729.704 271.303 730.52C271.303 730.792 271.287 731.048 271.255 731.288C271.239 731.528 271.215 731.72 271.183 731.864H263.695C263.823 732.92 264.191 733.736 264.799 734.312C265.423 734.872 266.215 735.152 267.175 735.152C267.687 735.152 268.159 735.08 268.591 734.936C269.039 734.776 269.479 734.56 269.911 734.288L270.847 736.016C270.287 736.384 269.663 736.688 268.975 736.928C268.287 737.168 267.567 737.288 266.815 737.288ZM263.671 729.992H268.903C268.903 729.08 268.703 728.368 268.303 727.856C267.919 727.328 267.319 727.064 266.503 727.064C265.799 727.064 265.183 727.312 264.655 727.808C264.127 728.304 263.799 729.032 263.671 729.992Z" fill="#002348"/>
<path d="M415.992 501V485.304H425.448V487.656H418.776V491.664H424.416V494.016H418.776V498.648H425.688V501H415.992ZM428.666 501V489.216H430.946L431.138 490.824H431.234C431.73 490.296 432.266 489.848 432.842 489.48C433.434 489.112 434.098 488.928 434.834 488.928C435.698 488.928 436.386 489.112 436.898 489.48C437.426 489.848 437.826 490.368 438.098 491.04C438.658 490.432 439.242 489.928 439.85 489.528C440.458 489.128 441.138 488.928 441.89 488.928C443.138 488.928 444.058 489.336 444.65 490.152C445.242 490.952 445.538 492.104 445.538 493.608V501H442.754V493.968C442.754 492.992 442.602 492.304 442.298 491.904C442.01 491.504 441.562 491.304 440.954 491.304C440.218 491.304 439.394 491.792 438.482 492.768V501H435.722V493.968C435.722 492.992 435.57 492.304 435.266 491.904C434.978 491.504 434.522 491.304 433.898 491.304C433.162 491.304 432.338 491.792 431.426 492.768V501H428.666ZM453.933 501.288C453.117 501.288 452.357 501.152 451.653 500.88C450.949 500.592 450.333 500.184 449.805 499.656C449.277 499.128 448.861 498.488 448.557 497.736C448.269 496.968 448.125 496.096 448.125 495.12C448.125 494.16 448.277 493.296 448.581 492.528C448.885 491.76 449.285 491.112 449.781 490.584C450.293 490.056 450.877 489.648 451.533 489.36C452.189 489.072 452.861 488.928 453.549 488.928C454.349 488.928 455.053 489.064 455.661 489.336C456.269 489.608 456.773 489.992 457.173 490.488C457.589 490.984 457.901 491.576 458.109 492.264C458.317 492.952 458.421 493.704 458.421 494.52C458.421 494.792 458.405 495.048 458.373 495.288C458.357 495.528 458.333 495.72 458.301 495.864H450.813C450.941 496.92 451.309 497.736 451.917 498.312C452.541 498.872 453.333 499.152 454.293 499.152C454.805 499.152 455.277 499.08 455.709 498.936C456.157 498.776 456.597 498.56 457.029 498.288L457.965 500.016C457.405 500.384 456.781 500.688 456.093 500.928C455.405 501.168 454.685 501.288 453.933 501.288ZM450.789 493.992H456.021C456.021 493.08 455.821 492.368 455.421 491.856C455.037 491.328 454.437 491.064 453.621 491.064C452.917 491.064 452.301 491.312 451.773 491.808C451.245 492.304 450.917 493.032 450.789 493.992ZM461.057 501V489.216H463.337L463.529 491.304H463.625C464.041 490.536 464.545 489.952 465.137 489.552C465.729 489.136 466.337 488.928 466.961 488.928C467.521 488.928 467.969 489.008 468.305 489.168L467.825 491.568C467.617 491.504 467.425 491.456 467.249 491.424C467.073 491.392 466.857 491.376 466.601 491.376C466.137 491.376 465.649 491.56 465.137 491.928C464.625 492.28 464.185 492.904 463.817 493.8V501H461.057ZM473.879 506.208C473.175 506.208 472.519 506.144 471.911 506.016C471.319 505.888 470.807 505.696 470.375 505.44C469.943 505.184 469.599 504.864 469.343 504.48C469.103 504.096 468.983 503.648 468.983 503.136C468.983 502.64 469.127 502.176 469.415 501.744C469.703 501.328 470.119 500.952 470.663 500.616V500.52C470.359 500.328 470.103 500.072 469.895 499.752C469.703 499.432 469.607 499.032 469.607 498.552C469.607 498.088 469.735 497.672 469.991 497.304C470.263 496.92 470.567 496.608 470.903 496.368V496.272C470.503 495.968 470.143 495.552 469.823 495.024C469.519 494.48 469.367 493.856 469.367 493.152C469.367 492.48 469.495 491.88 469.751 491.352C470.007 490.824 470.343 490.384 470.759 490.032C471.191 489.664 471.687 489.392 472.247 489.216C472.807 489.024 473.399 488.928 474.023 488.928C474.343 488.928 474.647 488.96 474.935 489.024C475.239 489.072 475.511 489.136 475.751 489.216H479.975V491.256H477.815C478.007 491.48 478.167 491.768 478.295 492.12C478.423 492.456 478.487 492.832 478.487 493.248C478.487 493.904 478.367 494.48 478.127 494.976C477.903 495.472 477.591 495.888 477.191 496.224C476.791 496.56 476.319 496.816 475.775 496.992C475.231 497.168 474.647 497.256 474.023 497.256C473.767 497.256 473.503 497.232 473.231 497.184C472.959 497.136 472.687 497.056 472.415 496.944C472.239 497.104 472.095 497.264 471.983 497.424C471.887 497.584 471.839 497.8 471.839 498.072C471.839 498.408 471.975 498.672 472.247 498.864C472.535 499.056 473.039 499.152 473.759 499.152H475.847C477.271 499.152 478.343 499.384 479.063 499.848C479.799 500.296 480.167 501.032 480.167 502.056C480.167 502.632 480.015 503.176 479.711 503.688C479.423 504.2 479.007 504.64 478.463 505.008C477.919 505.376 477.255 505.664 476.471 505.872C475.703 506.096 474.839 506.208 473.879 506.208ZM474.023 495.528C474.583 495.528 475.063 495.328 475.463 494.928C475.863 494.512 476.063 493.92 476.063 493.152C476.063 492.416 475.863 491.848 475.463 491.448C475.079 491.032 474.599 490.824 474.023 490.824C473.447 490.824 472.959 491.024 472.559 491.424C472.159 491.824 471.959 492.4 471.959 493.152C471.959 493.92 472.159 494.512 472.559 494.928C472.959 495.328 473.447 495.528 474.023 495.528ZM474.311 504.408C475.271 504.408 476.039 504.216 476.615 503.832C477.207 503.464 477.503 503.024 477.503 502.512C477.503 502.048 477.319 501.736 476.951 501.576C476.599 501.416 476.087 501.336 475.415 501.336H473.807C473.167 501.336 472.631 501.28 472.199 501.168C471.591 501.632 471.287 502.152 471.287 502.728C471.287 503.256 471.551 503.664 472.079 503.952C472.623 504.256 473.367 504.408 474.311 504.408ZM486.909 501.288C486.093 501.288 485.333 501.152 484.629 500.88C483.925 500.592 483.309 500.184 482.781 499.656C482.253 499.128 481.837 498.488 481.533 497.736C481.245 496.968 481.101 496.096 481.101 495.12C481.101 494.16 481.253 493.296 481.557 492.528C481.861 491.76 482.261 491.112 482.757 490.584C483.269 490.056 483.853 489.648 484.509 489.36C485.165 489.072 485.837 488.928 486.525 488.928C487.325 488.928 488.029 489.064 488.637 489.336C489.245 489.608 489.749 489.992 490.149 490.488C490.565 490.984 490.877 491.576 491.085 492.264C491.293 492.952 491.397 493.704 491.397 494.52C491.397 494.792 491.381 495.048 491.349 495.288C491.333 495.528 491.309 495.72 491.277 495.864H483.789C483.917 496.92 484.285 497.736 484.893 498.312C485.517 498.872 486.309 499.152 487.269 499.152C487.781 499.152 488.253 499.08 488.685 498.936C489.133 498.776 489.573 498.56 490.005 498.288L490.941 500.016C490.381 500.384 489.757 500.688 489.069 500.928C488.381 501.168 487.661 501.288 486.909 501.288ZM483.765 493.992H488.997C488.997 493.08 488.797 492.368 488.397 491.856C488.013 491.328 487.413 491.064 486.597 491.064C485.893 491.064 485.277 491.312 484.749 491.808C484.221 492.304 483.893 493.032 483.765 493.992ZM494.033 501V489.216H496.313L496.505 490.8H496.601C497.129 490.288 497.697 489.848 498.305 489.48C498.929 489.112 499.649 488.928 500.465 488.928C501.729 488.928 502.649 489.336 503.225 490.152C503.801 490.952 504.089 492.104 504.089 493.608V501H501.329V493.968C501.329 492.992 501.185 492.304 500.897 491.904C500.609 491.504 500.137 491.304 499.481 491.304C498.969 491.304 498.513 491.432 498.113 491.688C497.729 491.928 497.289 492.288 496.793 492.768V501H494.033ZM512.383 501.288C511.583 501.288 510.831 501.152 510.127 500.88C509.439 500.608 508.839 500.208 508.327 499.68C507.815 499.152 507.415 498.504 507.127 497.736C506.839 496.968 506.695 496.096 506.695 495.12C506.695 494.144 506.855 493.272 507.175 492.504C507.495 491.736 507.927 491.088 508.471 490.56C509.015 490.032 509.639 489.632 510.343 489.36C511.063 489.072 511.815 488.928 512.599 488.928C513.367 488.928 514.023 489.056 514.567 489.312C515.127 489.568 515.623 489.88 516.055 490.248L514.711 492.048C514.391 491.776 514.071 491.568 513.751 491.424C513.447 491.264 513.111 491.184 512.743 491.184C511.783 491.184 511.007 491.544 510.415 492.264C509.823 492.968 509.527 493.92 509.527 495.12C509.527 496.304 509.815 497.256 510.391 497.976C510.983 498.68 511.743 499.032 512.671 499.032C513.135 499.032 513.567 498.936 513.967 498.744C514.383 498.536 514.759 498.296 515.095 498.024L516.223 499.848C515.663 500.328 515.047 500.688 514.375 500.928C513.719 501.168 513.055 501.288 512.383 501.288ZM519.435 505.848C519.115 505.848 518.835 505.824 518.595 505.776C518.355 505.744 518.123 505.688 517.899 505.608L518.403 503.448C518.515 503.48 518.643 503.512 518.787 503.544C518.947 503.592 519.099 503.616 519.243 503.616C519.867 503.616 520.363 503.424 520.731 503.04C521.115 502.672 521.403 502.192 521.595 501.6L521.811 500.856L517.179 489.216H519.987L522.027 495C522.203 495.512 522.371 496.056 522.531 496.632C522.707 497.192 522.883 497.752 523.059 498.312H523.155C523.299 497.768 523.443 497.216 523.587 496.656C523.747 496.08 523.899 495.528 524.043 495L525.819 489.216H528.483L524.211 501.528C523.971 502.2 523.707 502.8 523.419 503.328C523.131 503.856 522.795 504.304 522.411 504.672C522.043 505.056 521.611 505.344 521.115 505.536C520.635 505.744 520.075 505.848 519.435 505.848ZM541.834 501.288C540.842 501.288 539.914 501.112 539.05 500.76C538.186 500.408 537.434 499.888 536.794 499.2C536.17 498.512 535.674 497.664 535.306 496.656C534.938 495.648 534.754 494.496 534.754 493.2C534.754 491.92 534.938 490.776 535.306 489.768C535.69 488.744 536.202 487.88 536.842 487.176C537.498 486.472 538.258 485.936 539.122 485.568C540.002 485.2 540.938 485.016 541.93 485.016C542.922 485.016 543.802 485.216 544.57 485.616C545.338 486.016 545.97 486.48 546.466 487.008L544.978 488.808C544.562 488.392 544.114 488.064 543.634 487.824C543.154 487.568 542.61 487.44 542.002 487.44C541.362 487.44 540.77 487.576 540.226 487.848C539.698 488.104 539.234 488.48 538.834 488.976C538.45 489.456 538.146 490.048 537.922 490.752C537.714 491.456 537.61 492.248 537.61 493.128C537.61 494.92 537.994 496.328 538.762 497.352C539.546 498.36 540.602 498.864 541.93 498.864C542.634 498.864 543.258 498.72 543.802 498.432C544.346 498.128 544.842 497.736 545.29 497.256L546.778 499.008C546.138 499.744 545.402 500.312 544.57 500.712C543.754 501.096 542.842 501.288 541.834 501.288ZM552.014 501.288C550.974 501.288 550.134 500.976 549.494 500.352C548.854 499.712 548.534 498.872 548.534 497.832C548.534 497.208 548.662 496.656 548.918 496.176C549.19 495.68 549.606 495.256 550.166 494.904C550.742 494.552 551.462 494.256 552.326 494.016C553.206 493.776 554.254 493.592 555.47 493.464C555.454 493.16 555.406 492.872 555.326 492.6C555.262 492.312 555.142 492.064 554.966 491.856C554.806 491.632 554.59 491.464 554.318 491.352C554.046 491.224 553.71 491.16 553.31 491.16C552.734 491.16 552.166 491.272 551.606 491.496C551.062 491.72 550.526 491.992 549.998 492.312L548.99 490.464C549.646 490.048 550.382 489.688 551.198 489.384C552.014 489.08 552.894 488.928 553.838 488.928C555.31 488.928 556.406 489.368 557.126 490.248C557.862 491.112 558.23 492.368 558.23 494.016V501H555.95L555.758 499.704H555.662C555.134 500.152 554.566 500.528 553.958 500.832C553.366 501.136 552.718 501.288 552.014 501.288ZM552.902 499.128C553.382 499.128 553.814 499.016 554.198 498.792C554.598 498.568 555.022 498.248 555.47 497.832V495.192C554.67 495.288 553.998 495.416 553.454 495.576C552.91 495.736 552.47 495.92 552.134 496.128C551.798 496.32 551.558 496.544 551.414 496.8C551.27 497.056 551.198 497.328 551.198 497.616C551.198 498.144 551.358 498.528 551.678 498.768C551.998 499.008 552.406 499.128 552.902 499.128ZM561.533 501V489.216H563.813L564.005 491.304H564.101C564.517 490.536 565.021 489.952 565.613 489.552C566.205 489.136 566.813 488.928 567.437 488.928C567.997 488.928 568.445 489.008 568.781 489.168L568.301 491.568C568.093 491.504 567.901 491.456 567.725 491.424C567.549 491.392 567.333 491.376 567.077 491.376C566.613 491.376 566.125 491.56 565.613 491.928C565.101 492.28 564.661 492.904 564.293 493.8V501H561.533ZM575.292 501.288C574.476 501.288 573.716 501.152 573.012 500.88C572.308 500.592 571.692 500.184 571.164 499.656C570.636 499.128 570.22 498.488 569.916 497.736C569.628 496.968 569.484 496.096 569.484 495.12C569.484 494.16 569.636 493.296 569.94 492.528C570.244 491.76 570.644 491.112 571.14 490.584C571.652 490.056 572.236 489.648 572.892 489.36C573.548 489.072 574.22 488.928 574.908 488.928C575.708 488.928 576.412 489.064 577.02 489.336C577.628 489.608 578.132 489.992 578.532 490.488C578.948 490.984 579.26 491.576 579.468 492.264C579.676 492.952 579.78 493.704 579.78 494.52C579.78 494.792 579.764 495.048 579.732 495.288C579.716 495.528 579.692 495.72 579.66 495.864H572.172C572.3 496.92 572.668 497.736 573.276 498.312C573.9 498.872 574.692 499.152 575.652 499.152C576.164 499.152 576.636 499.08 577.068 498.936C577.516 498.776 577.956 498.56 578.388 498.288L579.324 500.016C578.764 500.384 578.14 500.688 577.452 500.928C576.764 501.168 576.044 501.288 575.292 501.288ZM572.148 493.992H577.38C577.38 493.08 577.18 492.368 576.78 491.856C576.396 491.328 575.796 491.064 574.98 491.064C574.276 491.064 573.66 491.312 573.132 491.808C572.604 492.304 572.276 493.032 572.148 493.992Z" fill="#002348"/>
<mask id="mask0_2_8" style="mask-type:luminance" maskUnits="userSpaceOnUse" x="100" y="0" width="232" height="232">
<path d="M332 116C332 51.935 280.065 0 216 0C151.935 0 100 51.935 100 116C100 180.065 151.935 232 216 232C280.065 232 332 180.065 332 116Z" fill="white"/>
</mask>
<g mask="url(#mask0_2_8)">
<path d="M220.061 10C244.022 10 248.982 32.7626 248.994 41.1223C248.994 49.0889 247.439 50.3048 247.494 58.3803C247.53 64.514 249.308 68.8088 249.145 72.2931C248.201 90.4402 223.667 95.6726 216.662 95.7755C209.657 95.8783 179.158 89.9744 179.158 75.8681C179.158 66.0263 185.418 50.2866 185.249 39.356C184.874 16.654 203.856 10 220.061 10Z" fill="black"/>
<path fill-rule="evenodd" clip-rule="evenodd" d="M181.148 258.313L181.293 417.845L221.289 416.974L221.894 409.588L247.687 413.066L264.056 246.717L255.218 204.12L196.803 202.523L181.148 258.313Z" fill="#3B4161"/>
<path fill-rule="evenodd" clip-rule="evenodd" d="M211.441 216.877H253.93L259.683 154.106L252.006 106.004L237.489 92.0251L222.935 85.5284L196.651 89.5449L211.441 216.877Z" fill="#56ADFF"/>
<path fill-rule="evenodd" clip-rule="evenodd" d="M204.14 84.7541C194.208 85.0263 164.549 95.7936 160.218 106.718C156.927 115.005 154.671 189.989 162.402 193.649C162.898 193.889 163.417 194.079 163.95 194.218C163.485 196.516 159.032 249.742 160.164 254.17C161.295 258.598 164.265 265.3 168.566 265.058C185.207 264.06 215.779 242.217 218.815 238.654C219.281 231.903 220.569 206.546 220.569 206.546L217.92 131.308L202.755 89.8474C202.755 89.8474 214.073 84.4819 204.14 84.7541Z" fill="#F9F9F9"/>
<path fill-rule="evenodd" clip-rule="evenodd" d="M225.784 84.2823C242.86 86.4055 266.966 99.6469 270.069 105.678C272.682 110.747 271.357 176.373 271.357 176.373C271.357 176.373 261.679 189.651 266.04 208.747C270.045 226.362 271.23 250.141 267.032 254.587C260.112 251.085 251.214 237.045 249.611 233.585C248.008 230.125 247.591 210.55 246.356 206.364C245.122 202.178 239.6 128.071 239.6 128.071C239.6 128.071 237.023 98.1346 225.784 84.2823Z" fill="#F9F9F9"/>
<path d="M182.793 90.5854C191.389 106.258 208.804 124.121 217.781 130.939" stroke="#C9C9C9" stroke-width="1.20981" stroke-linecap="round" stroke-linejoin="round"/>
<path d="M234.428 86.0789C242.08 96.3985 244.052 113.935 238.057 131.743" stroke="#C9C9C9" stroke-width="1.20981" stroke-linecap="round" stroke-linejoin="round"/>
<path fill-rule="evenodd" clip-rule="evenodd" d="M191.48 134.368C191.48 131.613 193.14 129.129 195.686 128.075C198.232 127.021 201.162 127.605 203.109 129.554C205.057 131.504 205.638 134.434 204.582 136.979C203.526 139.524 201.04 141.182 198.285 141.18C194.525 141.176 191.48 138.128 191.48 134.368Z" stroke="#353823" stroke-width="2.06272" stroke-linecap="round" stroke-linejoin="round"/>
<path fill-rule="evenodd" clip-rule="evenodd" d="M194.794 134.368C194.794 132.962 195.642 131.693 196.942 131.155C198.241 130.617 199.737 130.914 200.732 131.909C201.727 132.904 202.024 134.4 201.486 135.699C200.948 136.999 199.679 137.847 198.273 137.847C196.352 137.847 194.794 136.289 194.794 134.368Z" fill="#353823"/>
<path d="M196.446 127.805C191.849 110.922 191.552 87.4278 203.42 83.1935" stroke="#353823" stroke-width="2.06272" stroke-linecap="round" stroke-linejoin="round"/>
<path d="M224.144 80.3202C230.913 83.1874 237.362 96.4106 238.874 107.734" stroke="#353823" stroke-width="2.06272" stroke-linecap="round" stroke-linejoin="round"/>
<path fill-rule="evenodd" clip-rule="evenodd" d="M231.567 129.003C229.401 118.538 232.668 109.041 238.862 107.734C245.056 106.428 251.837 113.892 253.984 124.357C256.132 134.822 252.883 144.319 246.689 145.62C240.495 146.92 233.732 139.45 231.567 129.003Z" stroke="#353823" stroke-width="2.06272" stroke-linecap="round" stroke-linejoin="round"/>
<path d="M189.441 112.543L186.828 163.422" stroke="#C9C9C9" stroke-width="1.20981" stroke-linecap="round" stroke-linejoin="round"/>
<path d="M182.085 114.044L188.878 123.516" stroke="#C9C9C9" stroke-width="1.20981" stroke-linecap="round" stroke-linejoin="round"/>
<path d="M204.787 159.375L178.668 165.624" stroke="#C9C9C9" stroke-width="1.20981" stroke-linecap="round" stroke-linejoin="round"/>
<path d="M179.986 158.637L186.64 163.718" stroke="#C9C9C9" stroke-width="1.20981" stroke-linecap="round" stroke-linejoin="round"/>
<path d="M205.78 188.84C194.794 193.262 168.699 198.549 163.769 194.169C157.175 188.308 155.3 127.811 158.609 111.763C160.539 102.423 170.284 96.4106 175.365 93.991" stroke="#C9C9C9" stroke-width="1.20981" stroke-linecap="round" stroke-linejoin="round"/>
<path d="M197.928 191.429C194.794 187.455 193.597 167.638 195.109 161.692" stroke="#C9C9C9" stroke-width="1.20981" stroke-linecap="round" stroke-linejoin="round"/>
<path fill-rule="evenodd" clip-rule="evenodd" d="M198.273 165.563C198.27 164.917 198.658 164.333 199.254 164.084C199.851 163.835 200.539 163.97 200.997 164.426C201.455 164.882 201.592 165.57 201.346 166.167C201.099 166.764 200.516 167.154 199.87 167.154C199.447 167.156 199.04 166.989 198.741 166.69C198.441 166.392 198.273 165.986 198.273 165.563Z" fill="#C9C9C9"/>
<path fill-rule="evenodd" clip-rule="evenodd" d="M195.363 214.137C191.89 215.478 188.198 216.165 184.475 216.164C181.712 216.137 178.966 215.73 176.315 214.954C176.115 215.721 176.008 216.509 175.994 217.301V229.937C175.994 235.45 180.463 239.918 185.975 239.918C191.487 239.918 195.956 235.45 195.956 229.937V217.289C195.93 216.213 195.73 215.149 195.363 214.137Z" stroke="#C9C9C9" stroke-width="1.20981" stroke-linecap="round" stroke-linejoin="round"/>
<path fill-rule="evenodd" clip-rule="evenodd" d="M234.077 125.246H286.238C289.402 125.246 291.289 127.72 290.472 130.769L270.335 204.846C269.328 208.038 266.421 210.25 263.076 210.369H210.945C207.788 210.369 205.894 207.895 206.711 204.846L226.842 130.769C227.845 127.584 230.741 125.374 234.077 125.246Z" fill="#007DF2"/>
<path fill-rule="evenodd" clip-rule="evenodd" d="M248.474 121.436H278.078C278.746 121.38 279.396 121.671 279.8 122.206C280.203 122.741 280.305 123.446 280.068 124.073L278.628 129.106C278.129 130.629 276.734 131.681 275.132 131.743H245.528C244.861 131.795 244.213 131.504 243.81 130.97C243.407 130.436 243.304 129.733 243.538 129.106L244.977 124.073C245.48 122.551 246.873 121.501 248.474 121.436Z" fill="#FF9F6B"/>
<path fill-rule="evenodd" clip-rule="evenodd" d="M204.636 163.005C206.942 161.671 209.392 160.602 211.937 159.817C215.609 156.792 218.307 144.845 219.281 144.089C220.255 143.333 223.515 143.823 223.612 144.954C224.036 149.098 223.812 153.937 220.14 158.262C230.823 151.469 231.633 148.457 234.573 150.731C237.513 153.005 238.571 164.099 236.049 168.685C229.105 181.339 210.837 183.051 205.247 183.136C203.856 177.117 203.856 169.84 204.636 163.005Z" fill="#F77F89"/>
<path d="M236.454 154.022L227.108 161.504" stroke="#A7464F" stroke-width="2.06272" stroke-linecap="round" stroke-linejoin="round"/>
<path d="M237.452 161.765L225.584 171.201" stroke="#A7464F" stroke-width="2.06272" stroke-linecap="round" stroke-linejoin="round"/>
<path fill-rule="evenodd" clip-rule="evenodd" d="M289.571 161.408C289.426 158.915 290.176 153.381 292.39 148.1C293.2 146.188 293.249 143.043 290.4 143.043C287.157 143.043 282.82 149.551 284.955 157.3C287.091 165.049 289.783 164.928 289.571 161.408Z" fill="#F77F89"/>
<path fill-rule="evenodd" clip-rule="evenodd" d="M279.53 146.763C282.106 146.763 289.94 162.261 289.885 164.142C289.831 166.023 289.014 168.884 287.799 168.739C286.583 168.594 276.408 155.643 276.408 151.245C276.408 148.699 277.648 146.763 279.53 146.763Z" fill="#F77F89"/>
<path fill-rule="evenodd" clip-rule="evenodd" d="M276.166 155.667C279.378 155.667 287.847 168.019 287.907 169.435C287.968 170.85 286.256 172.151 284.841 172.211C283.425 172.272 273.305 163.972 273.305 160.113C273.287 157.754 274.352 155.667 276.166 155.667Z" fill="#F77F89"/>
<path fill-rule="evenodd" clip-rule="evenodd" d="M279.13 178.768C280.522 178.702 284.393 175.242 284.393 172.52C284.393 171.449 281.689 168.679 280.334 168.763C278.979 168.848 276.215 174.056 276.269 175.381C276.323 176.706 277.309 178.835 279.13 178.768Z" fill="#F77F89"/>
<path d="M284.393 152.491C287.169 157.113 289.916 163.029 289.885 164.142" stroke="#A7464F" stroke-width="2.06272" stroke-linecap="round" stroke-linejoin="round"/>
<path d="M278.108 156.574C281.931 159.454 287.841 168.255 287.889 169.435" stroke="#A94B53" stroke-width="2.06272" stroke-linecap="round" stroke-linejoin="round"/>
<path fill-rule="evenodd" clip-rule="evenodd" d="M194.54 45.3809C194.54 31.5346 205.616 20.2834 219.305 20.2834C232.994 20.2834 244.046 31.5104 244.046 45.3567C244.046 59.203 232.946 70.4542 219.305 70.4542C205.665 70.4542 194.54 59.2332 194.54 45.3809Z" fill="#F77F89"/>
<path fill-rule="evenodd" clip-rule="evenodd" d="M215.639 47.1895C215.906 45.5926 216.849 44.413 217.793 44.5703C218.737 44.7276 219.257 46.143 219.003 47.74C218.749 49.3369 217.793 50.5165 216.849 50.3653C215.906 50.214 215.379 48.7925 215.639 47.1895Z" fill="#B5545C"/>
<path fill-rule="evenodd" clip-rule="evenodd" d="M234.277 48.3873C234.525 46.8931 235.42 45.7922 236.285 45.9374C237.15 46.0826 237.652 47.4073 237.41 48.9014C237.168 50.3955 236.261 51.4904 235.396 51.321C234.531 51.1517 234.029 49.8814 234.277 48.3873Z" fill="#B5545C"/>
<path fill-rule="evenodd" clip-rule="evenodd" d="M198.321 56.4204C199.791 60.5095 203.487 81.7598 202.555 89.4784C206.427 95.346 223.679 93.7128 228.82 88.7465C226.262 81.6026 226.165 76.479 227.102 70.4542C227.992 64.8165 196.851 52.3433 198.321 56.4204Z" fill="#F77F89"/>
<path d="M229.099 19.6785C229.31 25.6368 223.872 31.3289 209.088 34.1539C210.709 38.3337 210.843 44.6187 202.767 45.7499C193.349 47.0565 192.581 35.0249 192.581 35.0249L206.687 18.3598C206.687 18.3598 228.893 13.7081 229.099 19.6785Z" fill="black"/>
<path d="M224.659 15.4865C224.054 20.7794 230.145 33.6336 244.251 33.9845C254.281 33.9845 225.245 10.1875 224.659 15.4865Z" fill="black"/>
<path fill-rule="evenodd" clip-rule="evenodd" d="M208.296 69.5649C206.941 67.8531 208.901 60.0498 211.036 56.4748C213.613 54.9565 222.753 56.2208 227.465 52.1679C228.851 50.9581 229.595 51.8533 230.671 53.1781C232.565 55.5009 238.257 56.7047 240.386 58.0173C240.701 61.4048 237.591 69.1597 236.249 70.8957C234.143 73.6481 214.901 73.8961 208.296 69.5649Z" fill="white"/>
<path d="M212.282 57.1826C211.036 55.1017 205.592 45.7922 203.856 43.4331" stroke="white" stroke-width="2.06272" stroke-linecap="round" stroke-linejoin="round"/>
<path d="M209.367 69.0689C205.683 69.0689 196.924 57.5455 195.926 53.6802" stroke="white" stroke-width="2.06272" stroke-linecap="round" stroke-linejoin="round"/>
<path fill-rule="evenodd" clip-rule="evenodd" d="M190.306 47.4376C190.306 42.9843 193.916 39.3742 198.369 39.3742C202.823 39.3742 206.433 42.9843 206.433 47.4376C206.433 51.8908 202.823 55.5009 198.369 55.5009C193.916 55.5009 190.306 51.8908 190.306 47.4376Z" fill="#F77F89"/>
<path d="M219.723 222.709L247.972 221.826" stroke="#737999" stroke-width="1.02834" stroke-linecap="round" stroke-linejoin="round"/>
<path d="M176.048 263.576C166.975 267.375 160.164 260.606 160.109 253.898C160.055 247.189 162.71 207.163 163.073 203.17" stroke="#C9C9C9" stroke-width="1.20981" stroke-linecap="round" stroke-linejoin="round"/>
<path d="M271.218 115.253C271.69 101.558 257.269 95.2916 251.335 92.6058" stroke="#C9C9C9" stroke-width="1.20981" stroke-linecap="round" stroke-linejoin="round"/>
<path d="M268.399 251.962C269.53 244.661 269.609 224.904 267.698 217.367" stroke="#C9C9C9" stroke-width="1.20981" stroke-linecap="round" stroke-linejoin="round"/>
</g>
<mask id="mask1_2_8" style="mask-type:luminance" maskUnits="userSpaceOnUse" x="413" y="206" width="232" height="232">
<path d="M645 322C645 257.935 593.065 206 529 206C464.935 206 413 257.935 413 322C413 386.065 464.935 438 529 438C593.065 438 645 386.065 645 322Z" fill="white"/>
</mask>
<g mask="url(#mask1_2_8)">
<path fill-rule="evenodd" clip-rule="evenodd" d="M574.63 423.368C574.63 423.368 585.631 504.612 589.532 513.363C593.432 522.115 631.184 600.771 631.184 600.771L603.9 620.34C603.9 620.34 543.157 528.762 540.404 523.856C538.625 520.716 533.885 502.018 533.885 502.018L487.105 629.398L456.105 615.232L488.651 426.642L574.63 423.368Z" fill="#AADAF1"/>
<path fill-rule="evenodd" clip-rule="evenodd" d="M541.679 424.631L517.32 425.557L517.498 431.432L541.679 424.631ZM517.934 446.886L520.724 537.845L533.878 502.122L517.934 446.886Z" fill="#73A9C3"/>
<path d="M533.909 502.122L515.64 438.442" stroke="#0097F7" stroke-width="1.04254" stroke-linecap="round" stroke-linejoin="round"/>
<path fill-rule="evenodd" clip-rule="evenodd" d="M595.885 365.022C595.805 360.294 596.823 351.868 594.714 346.802C592.604 341.737 578.677 343.92 578.677 343.92C578.677 343.92 595.959 369.726 595.885 365.022Z" fill="#F77F89"/>
<path fill-rule="evenodd" clip-rule="evenodd" d="M538.459 283.551C570.116 283.551 595.946 299.587 596.198 323.891C596.351 339.143 599.16 350.114 599.16 350.114L571.091 357.093C571.091 357.093 580.842 424.042 577.42 426.857C567.24 435.246 495.82 438.055 486.958 428.924C486.179 417.628 493.048 387.529 493.048 387.529C493.048 387.529 471.252 336.15 483.064 311.92C494.256 288.953 523.68 284.826 536.724 284.378C537.441 284.354 537.846 283.551 538.459 283.551Z" fill="#FF9F6B"/>
<path fill-rule="evenodd" clip-rule="evenodd" d="M557.219 241.757C557.403 230.908 546.322 216 530.364 216C517.86 216 505.086 221.949 504.761 231.626C504.111 227.627 503.491 225.156 503.945 222.948C501.247 222.813 495.82 229.774 495.82 239.071C495.82 242.665 498.622 256.242 506.595 256.077C514.567 255.911 544.991 266.802 544.991 266.802C544.991 266.802 546.99 269.728 549.688 269.507C552.387 269.286 557.495 264.227 557.538 261.436C557.581 258.646 555.054 253.63 555.085 252.078C555.116 250.527 557.029 252.587 557.219 241.757Z" fill="#6A3416"/>
<path d="M519.062 315.127L513.438 335.586" stroke="black" stroke-width="2.09122" stroke-linecap="round" stroke-linejoin="round"/>
<path fill-rule="evenodd" clip-rule="evenodd" d="M503.166 255.684C503.164 246.084 508.945 237.428 517.814 233.753C526.683 230.077 536.893 232.108 543.681 238.896C550.47 245.684 552.5 255.894 548.825 264.763C545.15 273.632 536.494 279.414 526.893 279.411C513.789 279.411 503.166 268.788 503.166 255.684Z" fill="#F77F89"/>
<path fill-rule="evenodd" clip-rule="evenodd" d="M502.026 246.663C502.026 246.663 505.215 246.05 509.906 239.108C515.757 240.211 525.385 240.162 533.59 237.685C533.694 242.634 537.325 250.735 542.323 249.84C547.321 248.944 549.369 236.9 549.369 236.9L537.589 224.586L519.773 224.702L507.232 233.539L502.026 246.663Z" fill="#6A3416"/>
<path fill-rule="evenodd" clip-rule="evenodd" d="M509.109 252.863C508.888 250.968 509.483 249.349 510.434 249.239C511.384 249.128 512.341 250.569 512.562 252.458C512.782 254.347 512.187 255.972 511.231 256.083C510.274 256.193 509.348 254.752 509.109 252.863Z" fill="#90415B"/>
<path fill-rule="evenodd" clip-rule="evenodd" d="M550.853 260.621C550.24 264.392 549.014 282.33 550.958 286.145C546.622 290.511 533.909 292.394 527.249 290.499C527.77 285.323 525.624 280.263 524.477 278.197C523.33 276.13 551.448 256.843 550.853 260.621Z" fill="#F77F89"/>
<path fill-rule="evenodd" clip-rule="evenodd" d="M524.956 249.95C524.735 248.061 525.33 246.442 526.28 246.326C527.231 246.209 528.187 247.656 528.402 249.551C528.617 251.446 528.034 253.065 527.077 253.176C526.121 253.286 525.176 251.845 524.956 249.95Z" fill="#90415B"/>
<path d="M517.057 253.495C517.247 255.727 515.456 264.165 515.076 265.472C514.696 266.778 516.738 267.262 516.738 267.262" stroke="#90415B" stroke-width="1.04254" stroke-linecap="round" stroke-linejoin="round"/>
<path fill-rule="evenodd" clip-rule="evenodd" d="M504.356 263.123C504.479 265.496 510.084 277.737 513.389 279.62C516.695 281.502 541.599 281.257 547.321 268.93C542.624 268.201 539.441 264.214 535.724 255.684C527.421 256.911 518.007 255.684 516.493 255.764C514.831 255.862 510.832 261.381 504.356 263.123Z" fill="white"/>
<path fill-rule="evenodd" clip-rule="evenodd" d="M554.073 308.332C567.099 308.081 592.929 306.493 595.523 317.531C598.117 328.57 600.583 347.501 599.16 350.095C597.737 352.689 571.214 355.977 571.214 355.977C569.116 350.666 557.538 320.72 554.073 308.332Z" fill="#FF9F6B"/>
<path fill-rule="evenodd" clip-rule="evenodd" d="M581.872 381.513C574.697 382.678 532.351 353.174 527.102 353.75C521.852 354.327 508.379 353.812 508.379 353.812C508.379 353.812 500.713 324.43 517.069 323.345C518.081 323.278 524.072 328.607 524.072 328.607C524.072 328.607 525.734 328.079 526.893 329.03C529.009 330.759 535.89 338.578 539.33 339.817C545.12 341.908 592.101 350.794 594.352 354.535C596.603 358.276 599.086 378.722 581.872 381.513Z" fill="#F77F89"/>
<path fill-rule="evenodd" clip-rule="evenodd" d="M469.364 336.199H502.204C505.994 336.199 510.299 339.008 511.826 342.479L534.939 394.98C536.466 398.445 534.633 401.253 530.843 401.253H498.009C494.219 401.253 489.908 398.445 488.381 394.98L465.273 342.473C463.746 339.001 465.58 336.199 469.364 336.199Z" fill="#007EF3"/>
<path fill-rule="evenodd" clip-rule="evenodd" d="M468.56 378.857C466.996 374.822 465.88 369.247 468.076 365.678C470.271 362.109 478.722 351.119 482.224 350.917C485.725 350.715 494.716 360.459 495.679 363.618C496.641 366.776 496.292 373.638 494.783 376.594C493.275 379.55 487.222 385.29 484.174 385.407C481.126 385.523 469.486 381.323 468.56 378.857Z" fill="#F77F89"/>
<path fill-rule="evenodd" clip-rule="evenodd" d="M467.695 370.793C467.272 364.28 464.433 357.228 462.507 352.444C461.219 349.261 462.17 346.532 464.347 345.913C466.524 345.294 473.276 354.198 473.472 361.085C473.669 367.972 468.125 377.287 467.695 370.793Z" fill="#F77F89"/>
<path d="M467.291 367.475C468.852 364.027 470.935 360.839 473.466 358.025" stroke="#81666F" stroke-width="1.04254" stroke-linecap="round" stroke-linejoin="round"/>
<path d="M475.999 368.53C475.999 365.028 483.137 354.817 485.811 353.566" stroke="#905F6F" stroke-width="1.04254" stroke-linecap="round" stroke-linejoin="round"/>
<path d="M483.009 372.651C483.088 370.952 488.644 361.698 491.827 359.858" stroke="#8B5D6C" stroke-width="1.04254" stroke-linecap="round" stroke-linejoin="round"/>
<path d="M496.059 318.329C495.445 321.922 494.869 329.606 496.353 336.18" stroke="white" stroke-width="1.04254" stroke-linecap="round" stroke-linejoin="round"/>
<path d="M537.368 333.255L558.065 333.672" stroke="white" stroke-width="1.04254" stroke-linecap="round" stroke-linejoin="round"/>
<path fill-rule="evenodd" clip-rule="evenodd" d="M525.71 285.433C525.409 288.463 521.816 308.05 533.909 308.05C541.691 308.05 553.773 289.947 551.859 284.55" fill="#F77F89"/>
<path d="M525.71 285.433C525.409 288.463 521.816 308.05 533.909 308.05C541.691 308.05 553.773 289.947 551.859 284.55" stroke="white" stroke-width="1.04254" stroke-linecap="round" stroke-linejoin="round"/>
<path fill-rule="evenodd" clip-rule="evenodd" d="M539.33 253.01C539.328 249.354 541.529 246.056 544.906 244.654C548.284 243.253 552.173 244.025 554.759 246.61C557.346 249.195 558.12 253.083 556.722 256.462C555.323 259.84 552.026 262.044 548.37 262.044C543.38 262.044 539.334 258 539.33 253.01Z" fill="#F77F89"/>
<path d="M535.816 255.862C535.816 255.862 541.526 245.436 547.573 244.008" stroke="white" stroke-width="1.04254" stroke-linecap="round" stroke-linejoin="round"/>
<path d="M547.284 269.004L551.712 261.381" stroke="white" stroke-width="1.04254" stroke-linecap="round" stroke-linejoin="round"/>
<path d="M567.608 346.698C564.143 337.616 559.169 324.283 556.029 314.729" stroke="white" stroke-width="1.04254" stroke-linecap="round" stroke-linejoin="round"/>
<path d="M505.055 265.631C506.674 270.053 510.765 278.123 513.396 279.62C514.444 280.233 517.688 280.601 521.822 280.447" stroke="#C9C9C9" stroke-width="2.09122" stroke-linecap="round" stroke-linejoin="round"/>
</g>
<mask id="mask2_2_8" style="mask-type:luminance" maskUnits="userSpaceOnUse" x="100" y="443" width="232" height="232">
<path d="M332 559C332 494.935 280.065 443 216 443C151.935 443 100 494.935 100 559C100 623.065 151.935 675 216 675C280.065 675 332 623.065 332 559Z" fill="white"/>
</mask>
<g mask="url(#mask2_2_8)">
<path d="M122 573.615V607.67C122 609.845 123.764 611.609 125.939 611.609H177.575L199.442 604.1L221.31 611.609H306.061C308.237 611.609 308.164 609.845 308.164 607.67V576.25C308.164 574.54 309.444 572.876 308.416 571.511L269.991 520.483C268.502 518.506 266.171 517.343 263.697 517.343L192.515 514.773L135.573 517.343L122 573.615Z" fill="#B8C9EA"/>
<path d="M135.572 517.343V513.057C135.572 507.395 140.162 502.805 145.824 502.805H236.113C246.986 502.805 257.192 508.047 263.525 516.885L263.854 517.343H135.572Z" fill="#D6E0F4"/>
<path d="M263.525 516.885C257.192 508.047 246.986 502.805 236.113 502.805H220.915C231.788 502.805 241.994 508.047 248.327 516.885L248.655 517.343H263.854L263.525 516.885Z" fill="#B8C9EA"/>
<path d="M225.315 488.153C229.361 488.153 232.641 491.433 232.641 495.479V502.805H217.989V495.479C217.989 491.433 221.269 488.153 225.315 488.153Z" fill="#FF9F6B"/>
<path d="M123.382 567.885H202.772L181.242 530.2H132.471L123.382 567.885Z" fill="#FF9F6B"/>
<path d="M277.308 530.2H237.078C234.902 530.2 233.138 531.964 233.138 534.139V551.771C233.138 553.946 234.902 555.71 237.078 555.71H296.517L277.308 530.2Z" fill="#007DF2"/>
<path d="M177.575 534.139V611.609H221.309V534.139C221.309 531.964 219.546 530.2 217.37 530.2H181.515C179.339 530.2 177.575 531.964 177.575 534.139Z" fill="#D6E0F4"/>
<path d="M188.605 566.966V545.169C188.605 542.994 190.368 541.23 192.544 541.23H206.34C208.516 541.23 210.279 542.994 210.279 545.169V566.966C210.279 569.141 208.516 570.905 206.34 570.905H192.544C190.368 570.905 188.605 569.141 188.605 566.966Z" fill="#007DF2"/>
<path d="M160.429 619.196C168.143 613.176 169.516 602.042 163.496 594.329C157.476 586.615 146.342 585.242 138.629 591.262C130.915 597.282 129.542 608.416 135.562 616.129C141.582 623.843 152.716 625.216 160.429 619.196Z" fill="#007DF2"/>
<path d="M153.441 610.242C156.21 608.081 156.702 604.085 154.542 601.317C152.381 598.549 148.385 598.056 145.617 600.216C142.849 602.377 142.356 606.373 144.516 609.141C146.677 611.91 150.673 612.402 153.441 610.242Z" fill="#D5D9F2"/>
<path d="M270.275 619.241C277.989 613.221 279.362 602.087 273.342 594.374C267.322 586.66 256.188 585.287 248.475 591.307C240.761 597.327 239.388 608.461 245.408 616.174C251.428 623.888 262.562 625.261 270.275 619.241Z" fill="#007DF2"/>
<path d="M263.287 610.287C266.055 608.126 266.548 604.13 264.388 601.362C262.227 598.594 258.231 598.101 255.463 600.261C252.694 602.422 252.202 606.418 254.362 609.186C256.523 611.954 260.519 612.447 263.287 610.287Z" fill="#D5D9F2"/>
<path d="M298.487 598.348H310V579.336H298.487C297.399 579.336 296.517 580.218 296.517 581.306V596.379C296.517 597.467 297.399 598.348 298.487 598.348Z" fill="#FF9F6B"/>
<path d="M159.52 546.205H155.345V542.031C155.345 540.464 154.075 539.194 152.508 539.194C150.941 539.194 149.672 540.464 149.672 542.031V546.205H145.497C143.93 546.205 142.66 547.476 142.66 549.042C142.66 550.609 143.93 551.879 145.497 551.879H149.671V556.054C149.671 557.621 150.941 558.891 152.508 558.891C154.075 558.891 155.345 557.621 155.345 556.054V551.88H159.519C161.086 551.88 162.356 550.61 162.356 549.043C162.356 547.476 161.087 546.205 159.52 546.205Z" fill="#D6E0F4"/>
<path d="M243.566 568.923H239.422C237.855 568.923 236.585 567.653 236.585 566.086C236.585 564.519 237.855 563.249 239.422 563.249H243.566C245.133 563.249 246.403 564.519 246.403 566.086C246.403 567.653 245.133 568.923 243.566 568.923Z" fill="#8FACE0"/>
</g>
<defs>
<filter id="filter0_d_2_8" x="25" y="76" width="382" height="336" filterUnits="userSpaceOnUse" color-interpolation-filters="sRGB">
<feFlood flood-opacity="0" result="BackgroundImageFix"/>
<feColorMatrix in="SourceAlpha" type="matrix" values="0 0 0 0 0 0 0 0 0 0 0 0 0 0 0 0 0 0 127 0" result="hardAlpha"/>
<feOffset dy="10"/>
<feGaussianBlur stdDeviation="25"/>
<feColorMatrix type="matrix" values="0 0 0 0 0 0 0 0 0 0.231373 0 0 0 0 0.47451 0 0 0 0.0725798 0"/>
<feBlend mode="normal" in2="BackgroundImageFix" result="effect1_dropShadow_2_8"/>
<feBlend mode="normal" in="SourceGraphic" in2="effect1_dropShadow_2_8" result="shape"/>
</filter>
<filter id="filter1_d_2_8" x="25" y="513" width="382" height="342" filterUnits="userSpaceOnUse" color-interpolation-filters="sRGB">
<feFlood flood-opacity="0" result="BackgroundImageFix"/>
<feColorMatrix in="SourceAlpha" type="matrix" values="0 0 0 0 0 0 0 0 0 0 0 0 0 0 0 0 0 0 127 0" result="hardAlpha"/>
<feOffset dy="10"/>
<feGaussianBlur stdDeviation="25"/>
<feColorMatrix type="matrix" values="0 0 0 0 0 0 0 0 0 0.231373 0 0 0 0 0.47451 0 0 0 0.0725798 0"/>
<feBlend mode="normal" in2="BackgroundImageFix" result="effect1_dropShadow_2_8"/>
<feBlend mode="normal" in="SourceGraphic" in2="effect1_dropShadow_2_8" result="shape"/>
</filter>
<filter id="filter2_d_2_8" x="338" y="277" width="382" height="342" filterUnits="userSpaceOnUse" color-interpolation-filters="sRGB">
<feFlood flood-opacity="0" result="BackgroundImageFix"/>
<feColorMatrix in="SourceAlpha" type="matrix" values="0 0 0 0 0 0 0 0 0 0 0 0 0 0 0 0 0 0 127 0" result="hardAlpha"/>
<feOffset dy="10"/>
<feGaussianBlur stdDeviation="25"/>
<feColorMatrix type="matrix" values="0 0 0 0 0 0 0 0 0 0.231373 0 0 0 0 0.47451 0 0 0 0.0725798 0"/>
<feBlend mode="normal" in2="BackgroundImageFix" result="effect1_dropShadow_2_8"/>
<feBlend mode="normal" in="SourceGraphic" in2="effect1_dropShadow_2_8" result="shape"/>
</filter>
</defs>
</svg>
