<svg width="51" height="51" viewBox="0 0 51 51" fill="none" xmlns="http://www.w3.org/2000/svg">
<g clip-path="url(#clip0_4_125)">
<path d="M25.5 51C39.5833 51 51 39.5833 51 25.5C51 11.4167 39.5833 0 25.5 0C11.4167 0 0 11.4167 0 25.5C0 39.5833 11.4167 51 25.5 51Z" fill="#F7FBFF"/>
<path d="M28.3923 19.9887H30.0355V17.1268C29.752 17.0878 28.777 17 27.6415 17C25.2723 17 23.6493 18.4902 23.6493 21.2292V23.75H21.0348V26.9495H23.6493V35H26.8548V26.9502H29.3635L29.7618 23.7508H26.854V21.5465C26.8548 20.6218 27.1038 19.9887 28.3923 19.9887Z" fill="#7F7F7F"/>
</g>
<defs>
<clipPath id="clip0_4_125">
<rect width="51" height="51" fill="white"/>
</clipPath>
</defs>
</svg>
